<?xml version="1.0" encoding="UTF-8" standalone="no"?>
<svg width="29px" height="17px" viewBox="0 0 58 34" version="1.1" xmlns="http://www.w3.org/2000/svg" xmlns:xlink="http://www.w3.org/1999/xlink" xmlns:sketch="http://www.bohemiancoding.com/sketch/ns">
    <!-- Generator: Sketch 3.3 (11970) - http://www.bohemiancoding.com/sketch -->
    <title>go</title>
    <desc>Created with Sketch.</desc>
    <defs></defs>
    <g id="Ikoner" stroke="none" stroke-width="1" fill="none" fill-rule="evenodd" sketch:type="MSPage">
        <g id="Artboard-1" sketch:type="MSArtboardGroup" transform="translate(-4647.000000, -3041.000000)" fill="#FFFFFF">
            <path d="M4650.22661,3060.99084 L4695.09005,3060.89624 L4686.16748,3070.32372 C4685.64851,3070.85649 4685.39179,3071.54937 4685.39179,3072.23948 C4685.39179,3072.96272 4685.67336,3073.6832 4686.23373,3074.22425 C4687.32963,3075.28427 4689.07701,3075.2539 4690.13702,3074.158 L4703.54257,3060.09295 C4703.67783,3059.95217 4703.71924,3059.82795 4703.79653,3059.72029 C4703.92352,3059.54362 4704.0643,3059.38075 4704.14711,3059.17924 C4704.27685,3058.86455 4704.33758,3058.53053 4704.34587,3058.19375 C4704.33758,3057.74104 4704.27685,3057.40978 4704.14711,3057.09233 C4704.0643,3056.89082 4703.92352,3056.72795 4703.79929,3056.55128 C4703.71924,3056.44362 4703.67783,3056.3194 4703.58122,3056.22003 C4703.54809,3056.18414 4690.13702,3041.842 4690.13702,3041.842 C4689.077,3040.7461 4687.32963,3040.71573 4686.23373,3041.77575 C4685.13783,3042.83025 4685.1047,3044.5859 4686.16748,3045.67628 L4695.09281,3055.37809 L4650.22937,3055.47268 C4648.70283,3055.46992 4647.46615,3056.70385 4647.46615,3058.23038 C4647.46615,3059.75692 4648.70283,3060.99084 4650.22661,3060.99084 Z" id="go" sketch:type="MSShapeGroup"></path>
        </g>
    </g>
</svg>
