<?xml version="1.0" encoding="UTF-8" standalone="no"?>
<svg width="60px" height="65px" viewBox="0 0 60 65" version="1.1" xmlns="http://www.w3.org/2000/svg" xmlns:xlink="http://www.w3.org/1999/xlink" xmlns:sketch="http://www.bohemiancoding.com/sketch/ns">
    <!-- Generator: Sketch 3.3 (11970) - http://www.bohemiancoding.com/sketch -->
    <title>trash</title>
    <desc>Created with Sketch.</desc>
    <defs></defs>
    <g id="Ikoner" stroke="none" stroke-width="1" fill="none" fill-rule="evenodd" sketch:type="MSPage">
        <g id="Artboard-1" sketch:type="MSArtboardGroup" transform="translate(-4619.000000, -4750.000000)" fill="#000000">
            <path d="M4677,4762.994 L4675,4762.994 L4675,4810.995 C4675,4813.203 4673.21,4814.996 4671,4814.996 L4627,4814.996 C4624.792,4814.996 4623,4813.203 4623,4810.995 L4623,4762.994 L4620.999,4762.994 C4619.895,4762.994 4619,4762.098 4619,4760.995 C4619,4759.89 4619.896,4758.994 4620.999,4758.994 L4627,4758.994 L4638.999,4758.994 L4638.999,4752.996 C4638.999,4751.89 4639.895,4750.994 4640.999,4750.994 L4657,4750.994 C4658.104,4750.994 4659,4751.89 4659,4752.996 L4659,4758.994 L4671,4758.994 L4677,4758.994 C4678.104,4758.994 4679,4759.89 4679,4760.995 C4679,4762.098 4678.105,4762.994 4677,4762.994 L4677,4762.994 Z M4655,4754.995 L4643,4754.995 L4643,4758.994 L4655,4758.994 L4655,4754.995 L4655,4754.995 Z M4671,4762.994 L4669,4762.994 L4629,4762.994 L4627,4762.994 L4627,4764.994 L4627,4766.994 L4627,4808.994 C4627,4810.1 4627.896,4810.995 4629,4810.995 L4669,4810.995 C4670.104,4810.995 4671,4810.1 4671,4808.994 L4671,4766.998 L4671,4767 L4671,4762.994 L4671,4762.994 Z M4659,4776.994 L4663,4776.994 L4663,4800.995 L4659,4800.995 L4659,4776.994 L4659,4776.994 Z M4647,4772.992 L4651,4772.992 L4651,4800.994 L4647,4800.994 L4647,4772.992 L4647,4772.992 Z M4635,4776.994 L4638.999,4776.994 L4638.999,4800.995 L4635,4800.995 L4635,4776.994 L4635,4776.994 Z" id="trash" sketch:type="MSShapeGroup"></path>
        </g>
    </g>
</svg>